<?xml version="1.0" encoding="utf-8"?>
<svg width="144px" height="144px" viewBox="303.215 450 688.749 600" xmlns="http://www.w3.org/2000/svg" xmlns:xlink="http://www.w3.org/1999/xlink">
  <path style="fill:#1d90ff;fill-opacity:1;fill-rule:evenodd;opacity:1;stroke:none;" d="M450.343,600 C450.343,600,950,600,950,600 C977.614,600,996.053,622.386,991.184,650 C991.184,650,938.285,950,938.285,950 C928.547,1005.23,875.881,1050,820.653,1050 C820.653,1050,534.964,1050,534.964,1050 C534.964,1050,450.343,600,450.343,600 z"/>
  <path style="fill:#0074eb;fill-opacity:1;fill-rule:evenodd;opacity:1;stroke:none;" d="M605.796,1050 C605.796,1050,505.796,1050,505.796,1050 C450.568,1050,397.902,1005.23,388.163,950 C388.163,950,303.526,470,303.526,470 C301.579,458.954,308.954,450,320,450 C320,450,450,450,450,450 C477.614,450,503.947,472.386,508.816,500 C508.816,500,588.163,950,588.163,950 C597.902,1005.23,650.568,1050,705.796,1050 C705.796,1050,605.796,1050,605.796,1050 z"/>
</svg>
